<svg xmlns = "http://www.w3.org/2000/svg" width = "1000" height = "1000">
<g>
<polygon points = "756.281, 687.984 764.197, 700.625 803.865, 678.599 825.433, 636.500 818.680, 623.513 799.810, 619.561 791.236, 623.412 "
fill = "none" stroke = "black"/>
</g>
<g>
<polygon points = "954.485, 760.283 880.377, 888.676 1000.000, 958.333 1000.000, 773.017 "
fill = "none" stroke = "black"/>
</g>
<g>
<polygon points = "83.950, 521.806 141.981, 531.712 192.496, 468.196 182.835, 458.160 148.708, 449.310 129.957, 450.058 "
fill = "none" stroke = "black"/>
</g>
<g>
<polygon points = "148.931, 449.368 181.391, 457.786 200.904, 358.771 188.575, 349.231 107.743, 306.610 "
fill = "none" stroke = "black"/>
</g>
<g>
<polygon points = "710.134, 94.217 604.933, 63.963 592.689, 69.825 590.453, 76.539 592.530, 116.240 624.686, 140.525 "
fill = "none" stroke = "black"/>
</g>
<g>
<polygon points = "732.507, 476.180 714.403, 499.269 688.765, 536.253 683.602, 584.081 694.440, 605.946 772.925, 623.733 791.013, 623.512 799.504, 619.698 "
fill = "none" stroke = "black"/>
</g>
<g>
<polygon points = "876.915, 745.408 891.896, 734.229 890.656, 704.739 825.402, 636.560 803.852, 678.624 806.206, 707.021 "
fill = "none" stroke = "black"/>
</g>
<g>
<polygon points = "115.912, 932.452 125.148, 914.348 151.014, 832.394 129.109, 820.426 21.745, 818.962 0.000, 831.771 0.000, 894.587 "
fill = "none" stroke = "black"/>
</g>
<g>
<polygon points = "896.706, 188.815 838.675, 213.886 826.552, 245.908 828.108, 267.284 843.363, 295.942 1000.000, 333.060 1000.000, 228.170 "
fill = "none" stroke = "black"/>
</g>
<g>
<polygon points = "70.223, 242.500 159.000, 151.156 61.166, 0.000 0.000, 0.000 0.000, 203.556 "
fill = "none" stroke = "black"/>
</g>
<g>
<polygon points = "87.918, 1000.000 0.000, 928.266 0.000, 1000.000 "
fill = "none" stroke = "black"/>
</g>
<g>
<polygon points = "280.947, 923.139 317.084, 904.594 325.812, 859.431 268.785, 815.693 252.566, 898.654 "
fill = "none" stroke = "black"/>
</g>
<g>
<polygon points = "113.009, 654.214 86.438, 733.306 146.664, 746.425 236.378, 696.451 229.614, 652.965 141.213, 632.762 "
fill = "none" stroke = "black"/>
</g>
<g>
<polygon points = "277.997, 325.517 218.017, 284.903 197.846, 287.628 188.987, 349.550 200.932, 358.793 "
fill = "none" stroke = "black"/>
</g>
<g>
<polygon points = "422.271, 767.725 251.659, 725.797 241.401, 775.804 268.904, 815.785 325.656, 859.312 "
fill = "none" stroke = "black"/>
</g>
<g>
<polygon points = "209.280, 878.885 203.022, 867.660 124.969, 914.699 115.799, 932.674 155.572, 974.955 "
fill = "none" stroke = "black"/>
</g>
<g>
<polygon points = "425.400, 261.601 374.403, 176.045 322.690, 178.110 313.476, 255.053 338.804, 319.700 "
fill = "none" stroke = "black"/>
</g>
<g>
<polygon points = "415.864, 952.739 317.134, 904.568 280.873, 923.178 253.224, 1000.000 419.800, 1000.000 "
fill = "none" stroke = "black"/>
</g>
<g>
<polygon points = "720.690, 898.291 661.852, 966.355 663.954, 1000.000 775.384, 1000.000 780.570, 949.207 "
fill = "none" stroke = "black"/>
</g>
<g>
<polygon points = "566.693, 921.080 558.539, 920.420 521.284, 1000.000 602.200, 1000.000 "
fill = "none" stroke = "black"/>
</g>
<g>
<polygon points = "38.642, 544.726 50.652, 568.326 128.326, 614.970 133.797, 556.793 74.658, 528.280 "
fill = "none" stroke = "black"/>
</g>
<g>
<polygon points = "668.965, 590.782 683.703, 583.148 689.229, 531.954 517.126, 546.615 512.232, 553.463 541.051, 611.689 "
fill = "none" stroke = "black"/>
</g>
<g>
<polygon points = "843.428, 295.957 824.210, 366.112 985.423, 431.456 1000.000, 423.482 1000.000, 333.060 "
fill = "none" stroke = "black"/>
</g>
<g>
<polygon points = "944.916, 625.768 890.646, 704.515 891.895, 734.205 957.418, 761.103 1000.000, 773.017 1000.000, 624.854 "
fill = "none" stroke = "black"/>
</g>
<g>
<polygon points = "170.468, 24.876 204.522, 132.746 226.137, 145.003 302.396, 127.002 304.158, 122.720 265.849, 58.806 "
fill = "none" stroke = "black"/>
</g>
<g>
<polygon points = "190.638, 834.246 241.470, 775.469 251.943, 724.412 236.310, 696.488 146.698, 746.406 129.003, 820.368 150.521, 832.124 "
fill = "none" stroke = "black"/>
</g>
<g>
<polygon points = "690.628, 846.510 657.415, 833.141 606.260, 909.439 661.832, 966.378 720.690, 898.292 711.390, 868.600 "
fill = "none" stroke = "black"/>
</g>
<g>
<polygon points = "197.842, 287.659 74.067, 247.921 71.575, 248.032 81.002, 281.229 107.652, 306.562 189.001, 349.455 "
fill = "none" stroke = "black"/>
</g>
<g>
<polygon points = "766.169, 98.671 749.105, 86.591 742.399, 91.272 688.811, 217.207 692.717, 221.825 826.381, 246.359 838.634, 213.994 "
fill = "none" stroke = "black"/>
</g>
<g>
<polygon points = "133.809, 556.665 128.422, 613.949 140.698, 632.644 229.142, 652.857 299.546, 552.414 283.397, 512.405 191.866, 468.987 141.856, 531.869 "
fill = "none" stroke = "black"/>
</g>
<g>
<polygon points = "587.894, 65.709 592.697, 69.821 604.914, 63.972 632.556, 0.000 571.290, 0.000 "
fill = "none" stroke = "black"/>
</g>
<g>
<polygon points = "208.137, 222.571 73.983, 247.894 197.774, 287.637 217.962, 284.910 "
fill = "none" stroke = "black"/>
</g>
<g>
<polygon points = "428.920, 766.145 471.174, 784.061 565.016, 734.879 564.284, 723.588 542.095, 613.798 513.332, 555.685 509.910, 552.527 384.420, 573.869 "
fill = "none" stroke = "black"/>
</g>
<g>
<polygon points = "159.410, 151.789 204.528, 132.766 170.643, 25.430 147.943, 0.000 61.166, 0.000 "
fill = "none" stroke = "black"/>
</g>
<g>
<polygon points = "208.332, 222.534 218.181, 216.535 226.164, 145.018 204.545, 132.759 157.675, 152.520 67.990, 244.797 71.125, 248.051 73.771, 247.934 "
fill = "none" stroke = "black"/>
</g>
<g>
<polygon points = "695.783, 406.446 535.505, 481.091 710.347, 504.442 735.542, 472.310 742.487, 454.212 "
fill = "none" stroke = "black"/>
</g>
<g>
<polygon points = "886.859, 551.481 887.868, 505.410 750.458, 453.133 742.370, 454.515 733.358, 478.002 799.400, 619.475 818.835, 623.546 "
fill = "none" stroke = "black"/>
</g>
<g>
<polygon points = "497.349, 24.718 587.889, 65.690 571.290, 0.000 486.373, 0.000 "
fill = "none" stroke = "black"/>
</g>
<g>
<polygon points = "74.661, 528.281 133.771, 556.781 141.911, 531.700 83.880, 521.794 "
fill = "none" stroke = "black"/>
</g>
<g>
<polygon points = "338.759, 321.280 339.029, 320.272 313.468, 255.034 218.193, 216.527 208.148, 222.646 217.954, 284.860 278.308, 325.728 "
fill = "none" stroke = "black"/>
</g>
<g>
<polygon points = "766.357, 98.970 838.589, 213.923 896.560, 188.878 916.266, 89.204 "
fill = "none" stroke = "black"/>
</g>
<g>
<polygon points = "782.290, 947.961 780.571, 949.196 775.384, 1000.000 985.334, 1000.000 "
fill = "none" stroke = "black"/>
</g>
<g>
<polygon points = "502.256, 107.355 513.504, 145.168 544.857, 154.959 592.530, 116.234 590.453, 76.539 "
fill = "none" stroke = "black"/>
</g>
<g>
<polygon points = "21.012, 819.394 62.381, 749.332 25.420, 661.642 12.928, 656.080 0.000, 657.907 0.000, 831.771 "
fill = "none" stroke = "black"/>
</g>
<g>
<polygon points = "711.377, 868.558 720.689, 898.290 780.563, 949.201 784.957, 946.044 858.030, 879.045 836.224, 831.159 "
fill = "none" stroke = "black"/>
</g>
<g>
<polygon points = "534.865, 481.006 527.671, 483.740 509.325, 547.279 691.903, 531.726 710.777, 504.500 "
fill = "none" stroke = "black"/>
</g>
<g>
<polygon points = "668.226, 590.902 541.649, 611.591 564.267, 723.503 "
fill = "none" stroke = "black"/>
</g>
<g>
<polygon points = "767.094, 711.259 806.207, 707.030 803.850, 678.607 764.187, 700.631 "
fill = "none" stroke = "black"/>
</g>
<g>
<polygon points = "773.145, 623.731 711.053, 675.809 756.282, 687.982 791.183, 623.510 "
fill = "none" stroke = "black"/>
</g>
<g>
<polygon points = "341.685, 356.268 292.447, 534.826 296.695, 545.352 373.562, 575.715 507.702, 552.903 526.016, 489.472 507.614, 389.630 "
fill = "none" stroke = "black"/>
</g>
<g>
<polygon points = "62.299, 749.471 21.271, 818.955 128.989, 820.425 146.692, 746.431 86.453, 733.309 "
fill = "none" stroke = "black"/>
</g>
<g>
<polygon points = "420.422, 155.957 415.767, 115.187 370.364, 74.938 304.170, 122.691 302.395, 127.004 322.574, 178.115 374.167, 176.055 "
fill = "none" stroke = "black"/>
</g>
<g>
<polygon points = "12.874, 656.056 25.288, 661.584 113.346, 653.958 140.921, 632.984 129.591, 615.730 50.649, 568.324 "
fill = "none" stroke = "black"/>
</g>
<g>
<polygon points = "296.867, 518.795 345.007, 344.221 337.905, 321.342 277.345, 325.799 200.897, 358.808 181.575, 456.851 194.427, 470.202 "
fill = "none" stroke = "black"/>
</g>
<g>
<polygon points = "39.670, 424.030 129.609, 450.072 148.912, 449.302 107.759, 306.663 81.631, 281.827 "
fill = "none" stroke = "black"/>
</g>
<g>
<polygon points = "771.350, 769.028 759.737, 751.909 648.959, 725.271 604.139, 747.237 656.453, 832.753 691.026, 846.670 "
fill = "none" stroke = "black"/>
</g>
<g>
<polygon points = "12.859, 656.089 50.650, 568.321 38.533, 544.511 0.000, 518.348 0.000, 657.907 "
fill = "none" stroke = "black"/>
</g>
<g>
<polygon points = "302.394, 127.002 226.167, 144.996 218.182, 216.522 313.478, 255.038 322.662, 178.337 "
fill = "none" stroke = "black"/>
</g>
<g>
<polygon points = "705.309, 324.274 828.016, 266.022 826.587, 246.397 692.798, 221.840 "
fill = "none" stroke = "black"/>
</g>
<g>
<polygon points = "544.906, 154.920 593.876, 234.235 626.498, 216.825 624.700, 140.536 592.527, 116.237 "
fill = "none" stroke = "black"/>
</g>
<g>
<polygon points = "750.763, 453.081 824.184, 366.206 843.409, 296.028 827.553, 266.242 705.499, 324.183 681.263, 376.890 694.178, 404.805 742.724, 454.455 "
fill = "none" stroke = "black"/>
</g>
<g>
<polygon points = "241.303, 775.662 190.644, 834.239 203.072, 867.749 209.317, 878.951 252.572, 898.626 268.797, 815.629 "
fill = "none" stroke = "black"/>
</g>
<g>
<polygon points = "561.161, 314.727 506.873, 385.608 525.137, 484.704 539.345, 479.303 695.087, 406.770 682.589, 379.757 "
fill = "none" stroke = "black"/>
</g>
<g>
<polygon points = "475.563, 850.481 415.820, 952.214 419.800, 1000.000 521.284, 1000.000 558.446, 920.619 "
fill = "none" stroke = "black"/>
</g>
<g>
<polygon points = "87.918, 1000.000 165.774, 1000.000 155.695, 975.085 115.447, 932.300 0.000, 894.587 0.000, 928.266 "
fill = "none" stroke = "black"/>
</g>
<g>
<polygon points = "475.951, 849.820 470.946, 783.964 429.036, 766.194 422.832, 767.194 325.874, 859.105 317.093, 904.548 415.590, 952.606 "
fill = "none" stroke = "black"/>
</g>
<g>
<polygon points = "936.713, 474.706 887.871, 505.263 886.867, 551.101 944.924, 625.767 1000.000, 624.854 1000.000, 606.479 "
fill = "none" stroke = "black"/>
</g>
<g>
<polygon points = "606.137, 909.312 566.790, 921.295 602.200, 1000.000 663.954, 1000.000 661.855, 966.401 "
fill = "none" stroke = "black"/>
</g>
<g>
<polygon points = "370.371, 74.944 415.799, 115.216 444.584, 106.540 452.723, 0.000 385.133, 0.000 "
fill = "none" stroke = "black"/>
</g>
<g>
<polygon points = "927.341, 77.249 916.304, 89.010 896.582, 188.768 1000.000, 228.170 1000.000, 58.450 "
fill = "none" stroke = "black"/>
</g>
<g>
<polygon points = "203.035, 867.651 190.647, 834.246 151.090, 832.154 125.053, 914.648 "
fill = "none" stroke = "black"/>
</g>
<g>
<polygon points = "428.935, 766.210 385.983, 580.622 302.804, 547.765 229.515, 652.325 236.412, 696.670 252.887, 726.099 421.187, 767.459 "
fill = "none" stroke = "black"/>
</g>
<g>
<polygon points = "936.533, 474.819 985.490, 431.483 824.249, 366.129 750.656, 453.208 887.724, 505.355 "
fill = "none" stroke = "black"/>
</g>
<g>
<polygon points = "38.766, 544.670 74.670, 528.275 84.022, 521.694 129.895, 450.155 39.322, 423.929 0.000, 445.339 0.000, 518.348 "
fill = "none" stroke = "black"/>
</g>
<g>
<polygon points = "496.781, 100.167 502.257, 107.355 590.453, 76.539 592.692, 69.817 587.853, 65.673 497.367, 24.726 "
fill = "none" stroke = "black"/>
</g>
<g>
<polygon points = "887.026, 551.305 818.746, 623.640 825.539, 636.703 890.560, 704.639 944.920, 625.762 "
fill = "none" stroke = "black"/>
</g>
<g>
<polygon points = "891.916, 734.214 876.772, 745.515 835.668, 792.432 836.257, 831.232 858.191, 879.399 880.201, 888.982 954.664, 759.973 "
fill = "none" stroke = "black"/>
</g>
<g>
<polygon points = "265.833, 58.779 304.149, 122.706 370.373, 74.931 385.133, 0.000 304.051, 0.000 "
fill = "none" stroke = "black"/>
</g>
<g>
<polygon points = "927.610, 77.179 1000.000, 58.450 1000.000, 0.000 859.048, 0.000 "
fill = "none" stroke = "black"/>
</g>
<g>
<polygon points = "604.919, 63.959 709.890, 94.146 742.335, 91.317 749.142, 86.565 754.288, 0.000 632.556, 0.000 "
fill = "none" stroke = "black"/>
</g>
<g>
<polygon points = "691.826, 675.253 711.049, 675.813 773.096, 623.772 694.400, 605.937 "
fill = "none" stroke = "black"/>
</g>
<g>
<polygon points = "604.614, 748.014 564.397, 735.204 470.962, 784.173 476.031, 850.878 558.176, 920.390 567.326, 921.132 606.399, 909.232 657.036, 833.706 "
fill = "none" stroke = "black"/>
</g>
<g>
<polygon points = "749.139, 86.615 766.571, 98.956 916.113, 89.214 927.511, 77.068 859.048, 0.000 754.288, 0.000 "
fill = "none" stroke = "black"/>
</g>
<g>
<polygon points = "39.772, 423.684 81.397, 282.620 71.822, 248.899 71.719, 248.668 60.673, 237.204 0.000, 203.556 0.000, 445.339 "
fill = "none" stroke = "black"/>
</g>
<g>
<polygon points = "460.936, 245.159 556.452, 294.801 593.829, 234.159 544.948, 154.987 513.494, 145.164 461.920, 199.876 "
fill = "none" stroke = "black"/>
</g>
<g>
<polygon points = "496.782, 100.167 444.363, 106.606 415.771, 115.225 420.420, 155.937 461.834, 199.967 513.501, 145.157 502.255, 107.352 "
fill = "none" stroke = "black"/>
</g>
<g>
<polygon points = "556.360, 294.950 560.943, 314.610 680.467, 378.620 705.340, 324.530 692.810, 221.934 688.834, 217.234 626.765, 216.682 593.737, 234.309 "
fill = "none" stroke = "black"/>
</g>
<g>
<polygon points = "603.364, 747.616 648.722, 725.387 691.831, 675.138 694.403, 605.871 683.254, 583.380 667.881, 591.343 564.278, 723.489 565.051, 735.412 "
fill = "none" stroke = "black"/>
</g>
<g>
<polygon points = "561.015, 314.918 556.308, 294.727 460.982, 245.183 424.234, 262.383 339.264, 319.392 338.355, 322.792 349.218, 357.783 504.302, 388.964 "
fill = "none" stroke = "black"/>
</g>
<g>
<polygon points = "711.069, 675.814 691.734, 675.250 648.846, 725.244 759.841, 751.934 767.116, 711.341 764.177, 700.594 756.279, 687.982 "
fill = "none" stroke = "black"/>
</g>
<g>
<polygon points = "985.678, 431.317 936.698, 474.673 1000.000, 606.479 1000.000, 423.482 "
fill = "none" stroke = "black"/>
</g>
<g>
<polygon points = "626.494, 216.680 688.800, 217.234 742.382, 91.313 710.336, 94.107 624.700, 140.517 "
fill = "none" stroke = "black"/>
</g>
<g>
<polygon points = "280.901, 923.099 252.491, 898.589 209.258, 878.924 155.613, 974.882 165.774, 1000.000 253.224, 1000.000 "
fill = "none" stroke = "black"/>
</g>
<g>
<polygon points = "170.000, 24.710 265.821, 58.796 304.051, 0.000 147.943, 0.000 "
fill = "none" stroke = "black"/>
</g>
<g>
<polygon points = "759.823, 752.035 771.286, 768.934 835.677, 792.422 876.882, 745.389 806.220, 707.029 767.132, 711.254 "
fill = "none" stroke = "black"/>
</g>
<g>
<polygon points = "25.391, 661.575 62.409, 749.398 86.432, 733.323 113.087, 653.980 "
fill = "none" stroke = "black"/>
</g>
<g>
<polygon points = "460.935, 245.205 461.916, 200.054 420.434, 155.952 374.358, 175.971 425.510, 261.786 "
fill = "none" stroke = "black"/>
</g>
<g>
<polygon points = "771.403, 768.976 690.897, 846.796 711.356, 868.564 836.256, 831.150 835.668, 792.418 "
fill = "none" stroke = "black"/>
</g>
<g>
<polygon points = "882.981, 890.192 857.820, 879.237 782.740, 948.076 985.334, 1000.000 1000.000, 1000.000 1000.000, 958.333 "
fill = "none" stroke = "black"/>
</g>
<g>
<polygon points = "444.581, 106.580 496.781, 100.167 497.366, 24.757 486.373, 0.000 452.723, 0.000 "
fill = "none" stroke = "black"/>
</g>
</svg>
